<?xml version="1.0" encoding="UTF-8"?>
<svg version="1.1" xmlns="http://www.w3.org/2000/svg" width="240" height="240">
<path d="M0 0 C79.2 0 158.4 0 240 0 C240 79.2 240 158.4 240 240 C160.8 240 81.6 240 0 240 C0 160.8 0 81.6 0 0 Z " fill="#FD3A4A" transform="translate(0,0)"/>
<path d="M0 0 C26.515625 0 26.515625 0 31.7421875 4.5 C36.57481548 10.89906601 36.21343709 16.06573294 36.25 23.8125 C36.270625 24.89337891 36.29125 25.97425781 36.3125 27.08789062 C36.34696449 34.10572307 35.69879545 38.64977116 31.1875 44.25 C25.39408239 48.88473409 19.06462835 48.17230801 12 48 C12 54.6 12 61.2 12 68 C8.04 68 4.08 68 0 68 C0 45.56 0 23.12 0 0 Z " fill="#FDF1F1" transform="translate(34,86)"/>
<path d="M0 0 C5.61 0 11.22 0 17 0 C22.86588339 32.65341751 22.86588339 32.65341751 25.375 48.625 C25.54225586 49.66446777 25.70951172 50.70393555 25.88183594 51.77490234 C26.7251418 57.25639047 27.17124567 62.45427475 27 68 C23.37 68 19.74 68 16 68 C15.67 64.37 15.34 60.74 15 57 C10.38 57 5.76 57 1 57 C0.67 60.63 0.34 64.26 0 68 C-3.63 68 -7.26 68 -11 68 C-10.32883304 57.80972111 -8.79991156 47.87318985 -7.125 37.8125 C-6.86547976 36.22858204 -6.60636337 34.64459785 -6.34765625 33.06054688 C-5.57897169 28.37132955 -4.79371983 23.68504022 -4 19 C-3.79522034 17.7885733 -3.79522034 17.7885733 -3.58630371 16.55267334 C-3.18401067 14.18413315 -2.77660113 11.81653745 -2.3671875 9.44921875 C-2.2445755 8.72781204 -2.1219635 8.00640533 -1.99563599 7.26313782 C-1.11565825 2.2313165 -1.11565825 2.2313165 0 0 Z " fill="#FDF3F4" transform="translate(87,86)"/>
<path d="M0 0 C1.06468506 0.00036255 1.06468506 0.00036255 2.15087891 0.00073242 C7.57232099 0.17812748 10.82882203 1.34666014 14.8046875 4.95703125 C18.05066075 8.72566121 18.41723099 10.88000908 18.3125 15.75 C18.29445312 16.83667969 18.27640625 17.92335938 18.2578125 19.04296875 C18.23460937 19.87441406 18.21140625 20.70585938 18.1875 21.5625 C14.5575 21.5625 10.9275 21.5625 7.1875 21.5625 C6.9921875 19.54427083 6.796875 17.52604167 6.6015625 15.5078125 C6.32375251 13.33581755 6.32375251 13.33581755 4.1875 11.5625 C1.97677023 11.31996187 1.97677023 11.31996187 -0.4375 11.4375 C-1.66339844 11.46457031 -1.66339844 11.46457031 -2.9140625 11.4921875 C-3.85378906 11.52699219 -3.85378906 11.52699219 -4.8125 11.5625 C-5.3632562 15.82867499 -5.75178705 19.80335415 -3.67578125 23.69140625 C0.58972567 28.80381769 5.96951516 32.52620238 11.41796875 36.2890625 C15.6784162 39.78635505 17.91729326 42.70284181 18.71875 48.21875 C18.7084375 49.4871875 18.698125 50.755625 18.6875 52.0625 C18.6978125 53.3309375 18.708125 54.599375 18.71875 55.90625 C18.01781685 60.73031933 16.18772452 63.82680633 12.50390625 67.0234375 C6.31400661 70.24935402 0.04428483 70.44753481 -6.8125 69.5625 C-11.84609633 67.1781649 -15.31246787 63.56256427 -17.8125 58.5625 C-17.94927734 55.22513287 -17.85533944 51.9039767 -17.8125 48.5625 C-13.8525 48.5625 -9.8925 48.5625 -5.8125 48.5625 C-5.6171875 50.58072917 -5.421875 52.59895833 -5.2265625 54.6171875 C-4.94875251 56.78918245 -4.94875251 56.78918245 -2.8125 58.5625 C0.25858055 58.8892107 2.33800101 59.04388276 5.0625 57.5 C6.86190223 54.4010295 6.61077427 52.06962967 6.1875 48.5625 C3.46812765 44.54727651 0.31965453 42.01986653 -3.625 39.25 C-9.39001662 35.02842915 -15.48188789 30.55433633 -17.8125 23.5625 C-18.53834647 16.56326617 -18.40071969 11.09749097 -14.39453125 5.18359375 C-10.13235581 0.81617941 -5.937652 -0.01874171 0 0 Z " fill="#FDF5F6" transform="translate(140.8125,85.4375)"/>
<path d="M0 0 C4.57499355 1.58572785 7.13588943 3.83885142 10 7.6875 C11.38338235 12.26995404 11.1937699 16.22034239 11 21 C7.04 21 3.08 21 -1 21 C-1.22786458 18.68880208 -1.45572917 16.37760417 -1.68359375 14.06640625 C-1.78930815 12.01337975 -1.78930815 12.01337975 -3 11 C-4.87321948 10.83946185 -4.87321948 10.83946185 -7 10.875 C-7.721875 10.87242188 -8.44375 10.86984375 -9.1875 10.8671875 C-11.02089415 10.80304724 -11.02089415 10.80304724 -12 12 C-12.27776192 14.19321165 -12.27776192 14.19321165 -12.3125 16.75 C-12.34988281 17.61109375 -12.38726562 18.4721875 -12.42578125 19.359375 C-11.45234808 25.39644675 -6.22848133 28.56199579 -1.5625 31.9375 C-1.00240234 32.34162109 -0.44230469 32.74574219 0.13476562 33.16210938 C4.8450392 36.65221873 9.09475983 40.28427948 11 46 C11.48988853 51.56545491 11.76814541 56.40680952 9.3125 61.5 C5.30060495 65.83718384 2.12496148 68.74549713 -3.92578125 69.23828125 C-15.27680532 69.48703495 -15.27680532 69.48703495 -20 65 C-20.94875 64.154375 -21.8975 63.30875 -22.875 62.4375 C-26.3043645 58.19735923 -25.31482844 53.16318641 -25 48 C-21.37 48 -17.74 48 -14 48 C-13.34 50.97 -12.68 53.94 -12 57 C-7.02093741 57.75427297 -7.02093741 57.75427297 -2 58 C-1.35504713 54.16611347 -1.20418498 50.82090067 -2 47 C-4.8224013 43.323375 -8.27523024 40.72493588 -12 38 C-23.54582518 29.4700086 -23.54582518 29.4700086 -25 24 C-25.69039509 17.77917683 -25.96377795 12.14996621 -23.375 6.375 C-16.23192716 -0.76807284 -9.75426105 -1.20100645 0 0 Z " fill="#FEF3F4" transform="translate(195,86)"/>
<path d="M0 0 C3.63 0 7.26 0 11 0 C13.84799817 4.27199725 13.33018316 7.97798285 13.3125 13 C13.32861328 13.91523437 13.34472656 14.83046875 13.36132812 15.7734375 C13.36197266 16.65257813 13.36261719 17.53171875 13.36328125 18.4375 C13.36775269 19.64212891 13.36775269 19.64212891 13.37231445 20.87109375 C13 23 13 23 10 26 C6.7 26 3.4 26 0 26 C0 17.42 0 8.84 0 0 Z " fill="#F13748" transform="translate(46,97)"/>
<path d="M0 0 C0.66 0 1.32 0 2 0 C2.67511469 3.7068465 3.33858041 7.41568744 4 11.125 C4.19078125 12.17171875 4.3815625 13.2184375 4.578125 14.296875 C4.75859375 15.31523438 4.9390625 16.33359375 5.125 17.3828125 C5.37636719 18.78104248 5.37636719 18.78104248 5.6328125 20.20751953 C6.0221472 23.1684306 6.06158415 26.01701762 6 29 C2.7 29 -0.6 29 -4 29 C-3.52111327 25.47912839 -3.04189986 21.95830175 -2.5625 18.4375 C-2.36043945 16.9515332 -2.36043945 16.9515332 -2.15429688 15.43554688 C-1.45311064 10.28781382 -0.74279886 5.14189894 0 0 Z " fill="#EC384D" transform="translate(94,103)"/>
<path d="M0 0 C0.66 0.33 1.32 0.66 2 1 C2 4.96 2 8.92 2 13 C-1.63 13 -5.26 13 -9 13 C-9.1953125 11.01432292 -9.390625 9.02864583 -9.5859375 7.04296875 C-9.92665391 4.70011858 -9.92665391 4.70011858 -12 2 C-10.68 2.33 -9.36 2.66 -8 3 C-8 5.31 -8 7.62 -8 10 C-5.36 10 -2.72 10 0 10 C0 6.7 0 3.4 0 0 Z " fill="#FEDEE3" transform="translate(157,94)"/>
<path d="M0 0 C1 2 1 2 0.6875 4.0625 C0 6 0 6 -2 7 C-2.31241455 9.71446979 -2.51336592 12.33909361 -2.625 15.0625 C-2.66367188 15.82111328 -2.70234375 16.57972656 -2.7421875 17.36132812 C-2.83673562 19.24047195 -2.91946756 21.12020336 -3 23 C-6.12413661 18.31379508 -5.71218298 13.48311749 -5 8 C-3.69080446 5.00299139 -2.07526894 2.51996942 0 0 Z " fill="#FED1D6" transform="translate(128,89)"/>
<path d="M0 0 C1.4765625 1.03515625 1.4765625 1.03515625 3 3 C3.29939499 5.58008034 3.41940289 7.86459923 3.375 10.4375 C3.38273438 11.75621094 3.39046875 13.07492188 3.3984375 14.43359375 C2.99507785 18.0440581 2.48006608 19.43464064 0 22 C0.08378906 21.16597656 0.16757813 20.33195312 0.25390625 19.47265625 C0.8611662 12.76204941 1.01636473 6.66283545 0 0 Z " fill="#FFDDE5" transform="translate(156,127)"/>
<path d="M0 0 C0.33 0 0.66 0 1 0 C1.16276553 2.56506424 1.28113984 5.11975422 1.375 7.6875 C1.45041016 8.7693457 1.45041016 8.7693457 1.52734375 9.87304688 C1.67307052 15.19207413 1.67307052 15.19207413 -0.36230469 17.63525391 C-2.0234375 19.01953125 -2.0234375 19.01953125 -5 21 C-5.66 20.67 -6.32 20.34 -7 20 C-5.09570312 17.75390625 -5.09570312 17.75390625 -3.19140625 15.5078125 C-0.74560739 12.41247361 -0.72579738 9.74642201 -0.4375 5.875 C-0.35371094 4.77929688 -0.26992187 3.68359375 -0.18359375 2.5546875 C-0.12300781 1.71164063 -0.06242188 0.86859375 0 0 Z " fill="#DE3548" transform="translate(206,132)"/>
<path d="M0 0 C0.33 0 0.66 0 1 0 C1.33 3.96 1.66 7.92 2 12 C0.68 11.67 -0.64 11.34 -2 11 C-2.05399736 9.54207116 -2.09279177 8.08357288 -2.125 6.625 C-2.15980469 5.40683594 -2.15980469 5.40683594 -2.1953125 4.1640625 C-2 2 -2 2 0 0 Z " fill="#E4334A" transform="translate(122,134)"/>
<path d="M0 0 C0.99 0 1.98 0 3 0 C3.33 0.99 3.66 1.98 4 3 C2.6875 4.5 2.6875 4.5 1 6 C0.01 6 -0.98 6 -2 6 C-2 5.34 -2 4.68 -2 4 C-4.64 4 -7.28 4 -10 4 C-10 3.67 -10 3.34 -10 3 C-6.7 3 -3.4 3 0 3 C0 2.01 0 1.02 0 0 Z " fill="#F6566C" transform="translate(114,151)"/>
<path d="M0 0 C0.66 0 1.32 0 2 0 C3.20577428 4.94367454 2.6290678 8.20862412 1 13 C-0.9078584 9.8250906 -1.1609041 7.89414789 -0.625 4.25 C-0.51414062 3.45078125 -0.40328125 2.6515625 -0.2890625 1.828125 C-0.19367188 1.22484375 -0.09828125 0.6215625 0 0 Z " fill="#E54259" transform="translate(94,103)"/>
<path d="M0 0 C2.64 0 5.28 0 8 0 C8.33 0.99 8.66 1.98 9 3 C5.7 3 2.4 3 -1 3 C-0.67 2.01 -0.34 1.02 0 0 Z " fill="#EC535E" transform="translate(137,83)"/>
<path d="M0 0 C1.5625 1.0625 1.5625 1.0625 3 3 C2.6875 6.6875 2.6875 6.6875 2 10 C1.34 10 0.68 10 0 10 C-1.125 2.25 -1.125 2.25 0 0 Z " fill="#EC3C4B" transform="translate(113,136)"/>
<path d="M0 0 C3.96 0.33 7.92 0.66 12 1 C12 1.33 12 1.66 12 2 C10.35 2.33 8.7 2.66 7 3 C6.67 3.99 6.34 4.98 6 6 C5.34 6 4.68 6 4 6 C4 4.68 4 3.36 4 2 C2.68 2 1.36 2 0 2 C0 1.34 0 0.68 0 0 Z " fill="#EE3E4A" transform="translate(34,154)"/>
<path d="M0 0 C0.66 0 1.32 0 2 0 C1.67 4.29 1.34 8.58 1 13 C0.67 13 0.34 13 0 13 C-0.19397476 11.02145742 -0.38001321 9.0421352 -0.5625 7.0625 C-0.66691406 5.96035156 -0.77132812 4.85820313 -0.87890625 3.72265625 C-0.91886719 2.82417969 -0.95882812 1.92570312 -1 1 C-0.67 0.67 -0.34 0.34 0 0 Z " fill="#E43D49" transform="translate(169,93)"/>
<path d="M0 0 C0.66 0.66 1.32 1.32 2 2 C2.66 2 3.32 2 4 2 C3.34 3.32 2.68 4.64 2 6 C0.88625 5.071875 0.88625 5.071875 -0.25 4.125 C-2.48801188 2.39562719 -4.43739987 1.13893339 -7 0 C-3.98968256 -0.93423645 -3.13349732 -1.04449911 0 0 Z " fill="#E74059" transform="translate(64,86)"/>
<path d="M0 0 C1.98 0.495 1.98 0.495 4 1 C3.34 1.66 2.68 2.32 2 3 C1.54188325 4.97235333 1.54188325 4.97235333 1.375 7.125 C1.25125 8.40375 1.1275 9.6825 1 11 C0.34 11 -0.32 11 -1 11 C-0.67 7.37 -0.34 3.74 0 0 Z " fill="#FDDDE0" transform="translate(80,123)"/>
<path d="M0 0 C0.33 1.32 0.66 2.64 1 4 C1.66 4 2.32 4 3 4 C3.33 4.99 3.66 5.98 4 7 C2.35 7.33 0.7 7.66 -1 8 C-0.67 5.36 -0.34 2.72 0 0 Z " fill="#E03544" transform="translate(91,124)"/>
<path d="M0 0 C0.66 0 1.32 0 2 0 C3.65 2.97 5.3 5.94 7 9 C6.01 9.33 5.02 9.66 4 10 C3.32845067 8.71086513 2.66291141 7.41859796 2 6.125 C1.62875 5.40570313 1.2575 4.68640625 0.875 3.9453125 C0 2 0 2 0 0 Z " fill="#E2394A" transform="translate(169,110)"/>
<path d="M0 0 C0.33 0 0.66 0 1 0 C1.33 2.97 1.66 5.94 2 9 C2.99 9.33 3.98 9.66 5 10 C4.67 10.99 4.34 11.98 4 13 C1.78631706 10.78631706 0.13447079 9.06983375 -0.265625 5.88671875 C-0.25166986 3.92253213 -0.13286356 1.9597375 0 0 Z " fill="#D72849" transform="translate(135,99)"/>
<path d="M0 0 C0.66 0 1.32 0 2 0 C2.33 0.99 2.66 1.98 3 3 C-0.20015856 4.06671952 -1.88544294 3.94845472 -5.1875 3.5625 C-6.08855469 3.46066406 -6.98960938 3.35882813 -7.91796875 3.25390625 C-8.60503906 3.17011719 -9.29210938 3.08632812 -10 3 C-10 2.67 -10 2.34 -10 2 C-9.04287109 1.90912109 -9.04287109 1.90912109 -8.06640625 1.81640625 C-6.82697266 1.69072266 -6.82697266 1.69072266 -5.5625 1.5625 C-4.73878906 1.48128906 -3.91507813 1.40007812 -3.06640625 1.31640625 C-1.01337975 1.21069185 -1.01337975 1.21069185 0 0 Z " fill="#FEEEE9" transform="translate(57,121)"/>
<path d="M0 0 C0.66 0 1.32 0 2 0 C1.67 4.29 1.34 8.58 1 13 C0.67 13 0.34 13 0 13 C-0.19397476 11.02145742 -0.38001321 9.0421352 -0.5625 7.0625 C-0.66691406 5.96035156 -0.77132812 4.85820313 -0.87890625 3.72265625 C-0.91886719 2.82417969 -0.95882812 1.92570312 -1 1 C-0.67 0.67 -0.34 0.34 0 0 Z " fill="#DE2B43" transform="translate(122,95)"/>
<path d="M0 0 C2.475 0.495 2.475 0.495 5 1 C5 1.66 5 2.32 5 3 C5.99 3 6.98 3 8 3 C8 3.99 8 4.98 8 6 C4.63408134 4.55746343 2.48952921 2.66735273 0 0 Z " fill="#FEDEDD" transform="translate(179,120)"/>
<path d="M0 0 C0.99 0.33 1.98 0.66 3 1 C3 4.3 3 7.6 3 11 C2.01 10.67 1.02 10.34 0 10 C0 6.7 0 3.4 0 0 Z " fill="#FFD4E5" transform="translate(133,98)"/>
<path d="M0 0 C1.98 0.495 1.98 0.495 4 1 C4 3.64 4 6.28 4 9 C3.67 9 3.34 9 3 9 C3 7.02 3 5.04 3 3 C1.68 2.67 0.36 2.34 -1 2 C-0.67 1.34 -0.34 0.68 0 0 Z " fill="#E12D35" transform="translate(190,133)"/>
<path d="M0 0 C0.66 0.33 1.32 0.66 2 1 C1.21654285 2.17219543 0.42297164 3.33763668 -0.375 4.5 C-0.81585938 5.1496875 -1.25671875 5.799375 -1.7109375 6.46875 C-2.13632813 6.9740625 -2.56171875 7.479375 -3 8 C-3.66 8 -4.32 8 -5 8 C-3.8141763 4.62496331 -2.72426311 2.35277269 0 0 Z " fill="#FEE1E6" transform="translate(176,88)"/>
</svg>
