<svg width="119" height="82" viewBox="0 0 119 82" fill="none" xmlns="http://www.w3.org/2000/svg">
<path d="M56.5498 63H46.0576V36.7695C46.0576 36.0495 45.9162 35.368 45.6333 34.7251C45.3761 34.0822 45.0033 33.5164 44.5146 33.0278C44.026 32.5392 43.4603 32.1663 42.8174 31.9092C42.1745 31.6263 41.493 31.4849 40.7729 31.4849C40.0529 31.4849 39.3714 31.6263 38.7285 31.9092C38.1113 32.1663 37.5584 32.5392 37.0698 33.0278C36.6069 33.5164 36.234 34.0822 35.9512 34.7251C35.694 35.368 35.5654 36.0495 35.5654 36.7695V63H25.0347V36.7695C25.0347 36.0495 24.8932 35.368 24.6104 34.7251C24.3532 34.0822 23.9803 33.5164 23.4917 33.0278C23.0031 32.5392 22.4373 32.1663 21.7944 31.9092C21.1515 31.6263 20.4701 31.4849 19.75 31.4849C19.0299 31.4849 18.3485 31.6263 17.7056 31.9092C17.0884 32.1663 16.5355 32.5392 16.0469 33.0278C15.584 33.5164 15.2111 34.0822 14.9282 34.7251C14.6711 35.368 14.5425 36.0495 14.5425 36.7695V63H4.01172V21.687H6.55762L9.41211 24.8501C10.8779 23.6157 12.4852 22.6642 14.2339 21.9956C16.0083 21.3013 17.847 20.9541 19.75 20.9541C21.6787 20.9541 23.556 21.3141 25.3818 22.0342C27.2334 22.7542 28.8535 24.0015 30.2422 25.7759C30.8851 24.9015 31.618 24.1558 32.4409 23.5386C33.2638 22.9214 34.1253 22.4199 35.0254 22.0342C35.9512 21.6484 36.9027 21.3784 37.8799 21.2241C38.8571 21.0441 39.8215 20.9541 40.7729 20.9541C42.9588 20.9541 45.0033 21.3656 46.9062 22.1885C48.835 23.0114 50.5065 24.1429 51.9209 25.583C53.361 26.9974 54.4925 28.6689 55.3154 30.5977C56.1383 32.5264 56.5498 34.5837 56.5498 36.7695V63Z" fill="#417D72"/>
<path d="M64.7441 22.0293C64.7441 22.252 64.7002 22.46 64.6123 22.6533C64.5303 22.8467 64.416 23.0166 64.2695 23.1631C64.123 23.3037 63.9502 23.418 63.751 23.5059C63.5576 23.5879 63.3496 23.6289 63.127 23.6289C62.9043 23.6289 62.6934 23.5879 62.4941 23.5059C62.3008 23.418 62.1309 23.3037 61.9844 23.1631C61.8438 23.0166 61.7295 22.8467 61.6416 22.6533C61.5596 22.46 61.5186 22.252 61.5186 22.0293C61.5186 21.8125 61.5596 21.6074 61.6416 21.4141C61.7295 21.2148 61.8438 21.0449 61.9844 20.9043C62.1309 20.7578 62.3008 20.6436 62.4941 20.5615C62.6934 20.4736 62.9043 20.4297 63.127 20.4297C63.3496 20.4297 63.5576 20.4736 63.751 20.5615C63.9502 20.6436 64.123 20.7578 64.2695 20.9043C64.416 21.0449 64.5303 21.2148 64.6123 21.4141C64.7002 21.6074 64.7441 21.8125 64.7441 22.0293ZM64.3311 34H61.9141V24.5869H64.3311V34ZM69.0674 34H66.668V24.5869H67.248L68.0391 25.501C68.4258 25.1494 68.8623 24.8799 69.3486 24.6924C69.8408 24.499 70.3535 24.4023 70.8867 24.4023C71.4609 24.4023 72.0029 24.5137 72.5127 24.7363C73.0225 24.9531 73.4678 25.2549 73.8486 25.6416C74.2295 26.0225 74.5283 26.4707 74.7451 26.9863C74.9678 27.4961 75.0791 28.041 75.0791 28.6211V34H72.6797V28.6211C72.6797 28.375 72.6328 28.1436 72.5391 27.9268C72.4453 27.7041 72.3164 27.5107 72.1523 27.3467C71.9883 27.1826 71.7979 27.0537 71.5811 26.96C71.3643 26.8662 71.1328 26.8193 70.8867 26.8193C70.6348 26.8193 70.3975 26.8662 70.1748 26.96C69.9521 27.0537 69.7588 27.1826 69.5947 27.3467C69.4307 27.5107 69.3018 27.7041 69.208 27.9268C69.1143 28.1436 69.0674 28.375 69.0674 28.6211V34ZM80.123 22.0293C80.123 22.252 80.0791 22.46 79.9912 22.6533C79.9092 22.8467 79.7949 23.0166 79.6484 23.1631C79.502 23.3037 79.3291 23.418 79.1299 23.5059C78.9365 23.5879 78.7285 23.6289 78.5059 23.6289C78.2832 23.6289 78.0723 23.5879 77.873 23.5059C77.6797 23.418 77.5098 23.3037 77.3633 23.1631C77.2227 23.0166 77.1084 22.8467 77.0205 22.6533C76.9385 22.46 76.8975 22.252 76.8975 22.0293C76.8975 21.8125 76.9385 21.6074 77.0205 21.4141C77.1084 21.2148 77.2227 21.0449 77.3633 20.9043C77.5098 20.7578 77.6797 20.6436 77.873 20.5615C78.0723 20.4736 78.2832 20.4297 78.5059 20.4297C78.7285 20.4297 78.9365 20.4736 79.1299 20.5615C79.3291 20.6436 79.502 20.7578 79.6484 20.9043C79.7949 21.0449 79.9092 21.2148 79.9912 21.4141C80.0791 21.6074 80.123 21.8125 80.123 22.0293ZM79.71 34H77.293V24.5869H79.71V34ZM71.0107 43.21C71.0107 43.9131 70.8848 44.5693 70.6328 45.1787C70.3809 45.7822 70.0381 46.3066 69.6045 46.752C69.1709 47.1914 68.6611 47.54 68.0752 47.7979C67.4951 48.0498 66.8711 48.1758 66.2031 48.1758C65.541 48.1758 64.917 48.0498 64.3311 47.7979C63.751 47.54 63.2412 47.1914 62.8018 46.752C62.3682 46.3066 62.0254 45.7822 61.7734 45.1787C61.5215 44.5693 61.3955 43.9131 61.3955 43.21C61.3955 42.4951 61.5215 41.833 61.7734 41.2236C62.0254 40.6143 62.3682 40.0898 62.8018 39.6504C63.2412 39.2051 63.751 38.8564 64.3311 38.6045C64.917 38.3525 65.541 38.2266 66.2031 38.2266C66.8711 38.2266 67.4951 38.3467 68.0752 38.5869C68.6611 38.8213 69.1709 39.1582 69.6045 39.5977C70.0381 40.0312 70.3809 40.5557 70.6328 41.1709C70.8848 41.7803 71.0107 42.46 71.0107 43.21ZM68.5938 43.21C68.5938 42.8232 68.5293 42.4746 68.4004 42.1641C68.2773 41.8477 68.1074 41.5781 67.8906 41.3555C67.6738 41.127 67.4189 40.9541 67.126 40.8369C66.8389 40.7139 66.5312 40.6523 66.2031 40.6523C65.875 40.6523 65.5645 40.7139 65.2715 40.8369C64.9844 40.9541 64.7324 41.127 64.5156 41.3555C64.3047 41.5781 64.1377 41.8477 64.0146 42.1641C63.8916 42.4746 63.8301 42.8232 63.8301 43.21C63.8301 43.5732 63.8916 43.9102 64.0146 44.2207C64.1377 44.5312 64.3047 44.8008 64.5156 45.0293C64.7324 45.2578 64.9844 45.4395 65.2715 45.5742C65.5645 45.7031 65.875 45.7676 66.2031 45.7676C66.5312 45.7676 66.8389 45.7061 67.126 45.583C67.4189 45.46 67.6738 45.2871 67.8906 45.0645C68.1074 44.8418 68.2773 44.5723 68.4004 44.2559C68.5293 43.9395 68.5938 43.5908 68.5938 43.21ZM75.2373 48H72.8379V38.5869H73.418L74.209 39.501C74.5957 39.1494 75.0322 38.8799 75.5186 38.6924C76.0107 38.499 76.5234 38.4023 77.0566 38.4023C77.6309 38.4023 78.1729 38.5137 78.6826 38.7363C79.1924 38.9531 79.6377 39.2549 80.0186 39.6416C80.3994 40.0225 80.6982 40.4707 80.915 40.9863C81.1377 41.4961 81.249 42.041 81.249 42.6211V48H78.8496V42.6211C78.8496 42.375 78.8027 42.1436 78.709 41.9268C78.6152 41.7041 78.4863 41.5107 78.3223 41.3467C78.1582 41.1826 77.9678 41.0537 77.751 40.96C77.5342 40.8662 77.3027 40.8193 77.0566 40.8193C76.8047 40.8193 76.5674 40.8662 76.3447 40.96C76.1221 41.0537 75.9287 41.1826 75.7646 41.3467C75.6006 41.5107 75.4717 41.7041 75.3779 41.9268C75.2842 42.1436 75.2373 42.375 75.2373 42.6211V48ZM87.207 45.6973C87.3008 45.7266 87.3945 45.7471 87.4883 45.7588C87.582 45.7646 87.6758 45.7676 87.7695 45.7676C88.0039 45.7676 88.2295 45.7354 88.4463 45.6709C88.6631 45.6064 88.8652 45.5156 89.0527 45.3984C89.2461 45.2754 89.416 45.1289 89.5625 44.959C89.7148 44.7832 89.8379 44.5898 89.9316 44.3789L91.6895 46.1455C91.4668 46.4619 91.209 46.7461 90.916 46.998C90.6289 47.25 90.3154 47.4639 89.9756 47.6396C89.6416 47.8154 89.2871 47.9473 88.9121 48.0352C88.543 48.1289 88.1621 48.1758 87.7695 48.1758C87.1074 48.1758 86.4834 48.0527 85.8975 47.8066C85.3174 47.5605 84.8076 47.2178 84.3682 46.7783C83.9346 46.3389 83.5918 45.8174 83.3398 45.2139C83.0879 44.6045 82.9619 43.9365 82.9619 43.21C82.9619 42.4658 83.0879 41.7861 83.3398 41.1709C83.5918 40.5557 83.9346 40.0312 84.3682 39.5977C84.8076 39.1641 85.3174 38.8271 85.8975 38.5869C86.4834 38.3467 87.1074 38.2266 87.7695 38.2266C88.1621 38.2266 88.5459 38.2734 88.9209 38.3672C89.2959 38.4609 89.6504 38.5957 89.9844 38.7715C90.3242 38.9473 90.6406 39.1641 90.9336 39.4219C91.2266 39.6738 91.4844 39.958 91.707 40.2744L87.207 45.6973ZM88.4375 40.749C88.3262 40.708 88.2148 40.6816 88.1035 40.6699C87.998 40.6582 87.8867 40.6523 87.7695 40.6523C87.4414 40.6523 87.1309 40.7139 86.8379 40.8369C86.5508 40.9541 86.2988 41.124 86.082 41.3467C85.8711 41.5693 85.7041 41.8389 85.5811 42.1553C85.458 42.4658 85.3965 42.8174 85.3965 43.21C85.3965 43.2979 85.3994 43.3975 85.4053 43.5088C85.417 43.6201 85.4316 43.7344 85.4492 43.8516C85.4727 43.9629 85.499 44.0713 85.5283 44.1768C85.5576 44.2822 85.5957 44.376 85.6426 44.458L88.4375 40.749ZM95.6875 51.5859V49.1689L97.0234 49.1865C97.2578 49.1865 97.4834 49.1484 97.7002 49.0723C97.917 48.9961 98.1162 48.8906 98.2979 48.7559C98.4854 48.6211 98.6494 48.46 98.79 48.2725C98.9307 48.0908 99.0449 47.8916 99.1328 47.6748C98.8691 47.7861 98.5996 47.8975 98.3242 48.0088C98.0547 48.1201 97.7822 48.1758 97.5068 48.1758C96.9268 48.1758 96.3818 48.0732 95.8721 47.8682C95.3623 47.6631 94.9141 47.373 94.5273 46.998C94.1465 46.6172 93.8447 46.1572 93.6221 45.6182C93.4053 45.0732 93.2969 44.4639 93.2969 43.79V38.5869H95.6875V43.79C95.6875 44.124 95.7344 44.417 95.8281 44.6689C95.9277 44.915 96.0596 45.123 96.2236 45.293C96.3877 45.457 96.5781 45.5801 96.7949 45.6621C97.0176 45.7441 97.2549 45.7852 97.5068 45.7852C97.7529 45.7852 97.9844 45.7295 98.2012 45.6182C98.4238 45.501 98.6172 45.3486 98.7812 45.1611C98.9453 44.9736 99.0742 44.7627 99.168 44.5283C99.2617 44.2881 99.3086 44.042 99.3086 43.79V38.5869H101.726V46.8135C101.72 47.4756 101.591 48.0967 101.339 48.6768C101.087 49.2568 100.741 49.7637 100.302 50.1973C99.8682 50.6309 99.3613 50.9736 98.7812 51.2256C98.2012 51.4775 97.5801 51.6035 96.918 51.6035L95.6875 51.5859ZM71.0283 62H70.4482L69.5166 60.708C69.2881 60.9131 69.0449 61.1064 68.7871 61.2881C68.5352 61.4639 68.2686 61.6191 67.9873 61.7539C67.7061 61.8828 67.416 61.9854 67.1172 62.0615C66.8242 62.1377 66.5254 62.1758 66.2207 62.1758C65.5586 62.1758 64.9346 62.0645 64.3486 61.8418C63.7686 61.6191 63.2588 61.2969 62.8193 60.875C62.3857 60.4473 62.043 59.9258 61.791 59.3105C61.5391 58.6953 61.4131 57.9951 61.4131 57.21C61.4131 56.4775 61.5391 55.8066 61.791 55.1973C62.043 54.582 62.3857 54.0547 62.8193 53.6152C63.2588 53.1758 63.7686 52.8359 64.3486 52.5957C64.9346 52.3496 65.5586 52.2266 66.2207 52.2266C66.5254 52.2266 66.8271 52.2646 67.126 52.3408C67.4248 52.417 67.7148 52.5225 67.9961 52.6572C68.2773 52.792 68.5439 52.9502 68.7959 53.1318C69.0537 53.3135 69.2939 53.5098 69.5166 53.7207L70.4482 52.6045H71.0283V62ZM68.6113 57.21C68.6113 56.8818 68.5469 56.5654 68.418 56.2607C68.2949 55.9502 68.125 55.6777 67.9082 55.4434C67.6914 55.2031 67.4365 55.0127 67.1436 54.8721C66.8564 54.7256 66.5488 54.6523 66.2207 54.6523C65.8926 54.6523 65.582 54.708 65.2891 54.8193C65.002 54.9307 64.75 55.0947 64.5332 55.3115C64.3223 55.5283 64.1553 55.7979 64.0322 56.1201C63.9092 56.4365 63.8477 56.7998 63.8477 57.21C63.8477 57.6201 63.9092 57.9863 64.0322 58.3086C64.1553 58.625 64.3223 58.8916 64.5332 59.1084C64.75 59.3252 65.002 59.4893 65.2891 59.6006C65.582 59.7119 65.8926 59.7676 66.2207 59.7676C66.5488 59.7676 66.8564 59.6973 67.1436 59.5566C67.4365 59.4102 67.6914 59.2197 67.9082 58.9854C68.125 58.7451 68.2949 58.4727 68.418 58.168C68.5469 57.8574 68.6113 57.5381 68.6113 57.21ZM75.7646 62H73.3652V52.5869H73.9453L74.7363 53.501C75.123 53.1494 75.5596 52.8799 76.0459 52.6924C76.5381 52.499 77.0508 52.4023 77.584 52.4023C78.1582 52.4023 78.7002 52.5137 79.21 52.7363C79.7197 52.9531 80.165 53.2549 80.5459 53.6416C80.9268 54.0225 81.2256 54.4707 81.4424 54.9863C81.665 55.4961 81.7764 56.041 81.7764 56.6211V62H79.377V56.6211C79.377 56.375 79.3301 56.1436 79.2363 55.9268C79.1426 55.7041 79.0137 55.5107 78.8496 55.3467C78.6855 55.1826 78.4951 55.0537 78.2783 54.96C78.0615 54.8662 77.8301 54.8193 77.584 54.8193C77.332 54.8193 77.0947 54.8662 76.8721 54.96C76.6494 55.0537 76.4561 55.1826 76.292 55.3467C76.1279 55.5107 75.999 55.7041 75.9053 55.9268C75.8115 56.1436 75.7646 56.375 75.7646 56.6211V62ZM86.1875 65.5859V63.1689L87.5234 63.1865C87.7578 63.1865 87.9834 63.1484 88.2002 63.0723C88.417 62.9961 88.6162 62.8906 88.7979 62.7559C88.9854 62.6211 89.1494 62.46 89.29 62.2725C89.4307 62.0908 89.5449 61.8916 89.6328 61.6748C89.3691 61.7861 89.0996 61.8975 88.8242 62.0088C88.5547 62.1201 88.2822 62.1758 88.0068 62.1758C87.4268 62.1758 86.8818 62.0732 86.3721 61.8682C85.8623 61.6631 85.4141 61.373 85.0273 60.998C84.6465 60.6172 84.3447 60.1572 84.1221 59.6182C83.9053 59.0732 83.7969 58.4639 83.7969 57.79V52.5869H86.1875V57.79C86.1875 58.124 86.2344 58.417 86.3281 58.6689C86.4277 58.915 86.5596 59.123 86.7236 59.293C86.8877 59.457 87.0781 59.5801 87.2949 59.6621C87.5176 59.7441 87.7549 59.7852 88.0068 59.7852C88.2529 59.7852 88.4844 59.7295 88.7012 59.6182C88.9238 59.501 89.1172 59.3486 89.2812 59.1611C89.4453 58.9736 89.5742 58.7627 89.668 58.5283C89.7617 58.2881 89.8086 58.042 89.8086 57.79V52.5869H92.2256V60.8135C92.2197 61.4756 92.0908 62.0967 91.8389 62.6768C91.5869 63.2568 91.2412 63.7637 90.8018 64.1973C90.3682 64.6309 89.8613 64.9736 89.2812 65.2256C88.7012 65.4775 88.0801 65.6035 87.418 65.6035L86.1875 65.5859ZM106.533 62H104.143V56.0234C104.143 55.8594 104.11 55.7041 104.046 55.5576C103.987 55.4111 103.902 55.2822 103.791 55.1709C103.68 55.0596 103.551 54.9746 103.404 54.916C103.258 54.8516 103.103 54.8193 102.938 54.8193C102.774 54.8193 102.619 54.8516 102.473 54.916C102.332 54.9746 102.206 55.0596 102.095 55.1709C101.989 55.2822 101.904 55.4111 101.84 55.5576C101.781 55.7041 101.752 55.8594 101.752 56.0234V62H99.3525V56.0234C99.3525 55.8594 99.3203 55.7041 99.2559 55.5576C99.1973 55.4111 99.1123 55.2822 99.001 55.1709C98.8896 55.0596 98.7607 54.9746 98.6143 54.916C98.4678 54.8516 98.3125 54.8193 98.1484 54.8193C97.9844 54.8193 97.8291 54.8516 97.6826 54.916C97.542 54.9746 97.416 55.0596 97.3047 55.1709C97.1992 55.2822 97.1143 55.4111 97.0498 55.5576C96.9912 55.7041 96.9619 55.8594 96.9619 56.0234V62H94.5625V52.5869H95.1426L95.793 53.3076C96.127 53.0264 96.4932 52.8096 96.8916 52.6572C97.2959 52.499 97.7148 52.4199 98.1484 52.4199C98.5879 52.4199 99.0156 52.502 99.4316 52.666C99.8535 52.8301 100.223 53.1143 100.539 53.5186C100.686 53.3193 100.853 53.1494 101.04 53.0088C101.228 52.8682 101.424 52.7539 101.629 52.666C101.84 52.5781 102.057 52.5166 102.279 52.4814C102.502 52.4404 102.722 52.4199 102.938 52.4199C103.437 52.4199 103.902 52.5137 104.336 52.7012C104.775 52.8887 105.156 53.1465 105.479 53.4746C105.807 53.7969 106.064 54.1777 106.252 54.6172C106.439 55.0566 106.533 55.5254 106.533 56.0234V62ZM117.888 57.21C117.888 57.9131 117.762 58.5693 117.51 59.1787C117.258 59.7822 116.915 60.3066 116.481 60.752C116.048 61.1914 115.538 61.54 114.952 61.7979C114.372 62.0498 113.748 62.1758 113.08 62.1758C112.418 62.1758 111.794 62.0498 111.208 61.7979C110.628 61.54 110.118 61.1914 109.679 60.752C109.245 60.3066 108.902 59.7822 108.65 59.1787C108.398 58.5693 108.272 57.9131 108.272 57.21C108.272 56.4951 108.398 55.833 108.65 55.2236C108.902 54.6143 109.245 54.0898 109.679 53.6504C110.118 53.2051 110.628 52.8564 111.208 52.6045C111.794 52.3525 112.418 52.2266 113.08 52.2266C113.748 52.2266 114.372 52.3467 114.952 52.5869C115.538 52.8213 116.048 53.1582 116.481 53.5977C116.915 54.0312 117.258 54.5557 117.51 55.1709C117.762 55.7803 117.888 56.46 117.888 57.21ZM115.471 57.21C115.471 56.8232 115.406 56.4746 115.277 56.1641C115.154 55.8477 114.984 55.5781 114.768 55.3555C114.551 55.127 114.296 54.9541 114.003 54.8369C113.716 54.7139 113.408 54.6523 113.08 54.6523C112.752 54.6523 112.441 54.7139 112.148 54.8369C111.861 54.9541 111.609 55.127 111.393 55.3555C111.182 55.5781 111.015 55.8477 110.892 56.1641C110.769 56.4746 110.707 56.8232 110.707 57.21C110.707 57.5732 110.769 57.9102 110.892 58.2207C111.015 58.5312 111.182 58.8008 111.393 59.0293C111.609 59.2578 111.861 59.4395 112.148 59.5742C112.441 59.7031 112.752 59.7676 113.08 59.7676C113.408 59.7676 113.716 59.7061 114.003 59.583C114.296 59.46 114.551 59.2871 114.768 59.0645C114.984 58.8418 115.154 58.5723 115.277 58.2559C115.406 57.9395 115.471 57.5908 115.471 57.21Z" fill="#417D72"/>
<path d="M11.0004 22.9999C5.1411 26.764 3.1052 33.6836 2.55288 36L2.55273 20.1089C7.33951 19.778 15.5004 20.109 11.0004 22.9999Z" fill="white" stroke="white"/>
</svg>
