<svg width="99" height="106" viewBox="0 0 99 106" fill="none" xmlns="http://www.w3.org/2000/svg">
<path d="M46.4375 51H38.4688V31.0781C38.4688 30.5312 38.3613 30.0137 38.1465 29.5254C37.9512 29.0371 37.668 28.6074 37.2969 28.2363C36.9258 27.8652 36.4961 27.582 36.0078 27.3867C35.5195 27.1719 35.002 27.0645 34.4551 27.0645C33.9082 27.0645 33.3906 27.1719 32.9023 27.3867C32.4336 27.582 32.0137 27.8652 31.6426 28.2363C31.291 28.6074 31.0078 29.0371 30.793 29.5254C30.5977 30.0137 30.5 30.5312 30.5 31.0781V51H22.502V31.0781C22.502 30.5312 22.3945 30.0137 22.1797 29.5254C21.9844 29.0371 21.7012 28.6074 21.3301 28.2363C20.959 27.8652 20.5293 27.582 20.041 27.3867C19.5527 27.1719 19.0352 27.0645 18.4883 27.0645C17.9414 27.0645 17.4238 27.1719 16.9355 27.3867C16.4668 27.582 16.0469 27.8652 15.6758 28.2363C15.3242 28.6074 15.041 29.0371 14.8262 29.5254C14.6309 30.0137 14.5332 30.5312 14.5332 31.0781V51H6.53516V19.623H8.46875L10.6367 22.0254C11.75 21.0879 12.9707 20.3652 14.2988 19.8574C15.6465 19.3301 17.043 19.0664 18.4883 19.0664C19.9531 19.0664 21.3789 19.3398 22.7656 19.8867C24.1719 20.4336 25.4023 21.3809 26.457 22.7285C26.9453 22.0645 27.502 21.498 28.127 21.0293C28.752 20.5605 29.4062 20.1797 30.0898 19.8867C30.793 19.5938 31.5156 19.3887 32.2578 19.2715C33 19.1348 33.7324 19.0664 34.4551 19.0664C36.1152 19.0664 37.668 19.3789 39.1133 20.0039C40.5781 20.6289 41.8477 21.4883 42.9219 22.582C44.0156 23.6562 44.875 24.9258 45.5 26.3906C46.125 27.8555 46.4375 29.418 46.4375 31.0781V51ZM92.6992 51H84.7305V31.0781C84.7305 30.5312 84.623 30.0137 84.4082 29.5254C84.2129 29.0371 83.9297 28.6074 83.5586 28.2363C83.1875 27.8652 82.7578 27.582 82.2695 27.3867C81.7812 27.1719 81.2637 27.0645 80.7168 27.0645C80.1699 27.0645 79.6523 27.1719 79.1641 27.3867C78.6953 27.582 78.2754 27.8652 77.9043 28.2363C77.5527 28.6074 77.2695 29.0371 77.0547 29.5254C76.8594 30.0137 76.7617 30.5312 76.7617 31.0781V51H68.7637V31.0781C68.7637 30.5312 68.6562 30.0137 68.4414 29.5254C68.2461 29.0371 67.9629 28.6074 67.5918 28.2363C67.2207 27.8652 66.791 27.582 66.3027 27.3867C65.8145 27.1719 65.2969 27.0645 64.75 27.0645C64.2031 27.0645 63.6855 27.1719 63.1973 27.3867C62.7285 27.582 62.3086 27.8652 61.9375 28.2363C61.5859 28.6074 61.3027 29.0371 61.0879 29.5254C60.8926 30.0137 60.7949 30.5312 60.7949 31.0781V51H52.7969V19.623H54.7305L56.8984 22.0254C58.0117 21.0879 59.2324 20.3652 60.5605 19.8574C61.9082 19.3301 63.3047 19.0664 64.75 19.0664C66.2148 19.0664 67.6406 19.3398 69.0273 19.8867C70.4336 20.4336 71.6641 21.3809 72.7188 22.7285C73.207 22.0645 73.7637 21.498 74.3887 21.0293C75.0137 20.5605 75.668 20.1797 76.3516 19.8867C77.0547 19.5938 77.7773 19.3887 78.5195 19.2715C79.2617 19.1348 79.9941 19.0664 80.7168 19.0664C82.377 19.0664 83.9297 19.3789 85.375 20.0039C86.8398 20.6289 88.1094 21.4883 89.1836 22.582C90.2773 23.6562 91.1367 24.9258 91.7617 26.3906C92.3867 27.8555 92.6992 29.418 92.6992 31.0781V51ZM46.4375 87H38.4688V67.0781C38.4688 66.5312 38.3613 66.0137 38.1465 65.5254C37.9512 65.0371 37.668 64.6074 37.2969 64.2363C36.9258 63.8652 36.4961 63.582 36.0078 63.3867C35.5195 63.1719 35.002 63.0645 34.4551 63.0645C33.9082 63.0645 33.3906 63.1719 32.9023 63.3867C32.4336 63.582 32.0137 63.8652 31.6426 64.2363C31.291 64.6074 31.0078 65.0371 30.793 65.5254C30.5977 66.0137 30.5 66.5312 30.5 67.0781V87H22.502V67.0781C22.502 66.5312 22.3945 66.0137 22.1797 65.5254C21.9844 65.0371 21.7012 64.6074 21.3301 64.2363C20.959 63.8652 20.5293 63.582 20.041 63.3867C19.5527 63.1719 19.0352 63.0645 18.4883 63.0645C17.9414 63.0645 17.4238 63.1719 16.9355 63.3867C16.4668 63.582 16.0469 63.8652 15.6758 64.2363C15.3242 64.6074 15.041 65.0371 14.8262 65.5254C14.6309 66.0137 14.5332 66.5312 14.5332 67.0781V87H6.53516V55.623H8.46875L10.6367 58.0254C11.75 57.0879 12.9707 56.3652 14.2988 55.8574C15.6465 55.3301 17.043 55.0664 18.4883 55.0664C19.9531 55.0664 21.3789 55.3398 22.7656 55.8867C24.1719 56.4336 25.4023 57.3809 26.457 58.7285C26.9453 58.0645 27.502 57.498 28.127 57.0293C28.752 56.5605 29.4062 56.1797 30.0898 55.8867C30.793 55.5938 31.5156 55.3887 32.2578 55.2715C33 55.1348 33.7324 55.0664 34.4551 55.0664C36.1152 55.0664 37.668 55.3789 39.1133 56.0039C40.5781 56.6289 41.8477 57.4883 42.9219 58.582C44.0156 59.6562 44.875 60.9258 45.5 62.3906C46.125 63.8555 46.4375 65.418 46.4375 67.0781V87ZM92.6992 87H84.7305V67.0781C84.7305 66.5312 84.623 66.0137 84.4082 65.5254C84.2129 65.0371 83.9297 64.6074 83.5586 64.2363C83.1875 63.8652 82.7578 63.582 82.2695 63.3867C81.7812 63.1719 81.2637 63.0645 80.7168 63.0645C80.1699 63.0645 79.6523 63.1719 79.1641 63.3867C78.6953 63.582 78.2754 63.8652 77.9043 64.2363C77.5527 64.6074 77.2695 65.0371 77.0547 65.5254C76.8594 66.0137 76.7617 66.5312 76.7617 67.0781V87H68.7637V67.0781C68.7637 66.5312 68.6562 66.0137 68.4414 65.5254C68.2461 65.0371 67.9629 64.6074 67.5918 64.2363C67.2207 63.8652 66.791 63.582 66.3027 63.3867C65.8145 63.1719 65.2969 63.0645 64.75 63.0645C64.2031 63.0645 63.6855 63.1719 63.1973 63.3867C62.7285 63.582 62.3086 63.8652 61.9375 64.2363C61.5859 64.6074 61.3027 65.0371 61.0879 65.5254C60.8926 66.0137 60.7949 66.5312 60.7949 67.0781V87H52.7969V55.623H54.7305L56.8984 58.0254C58.0117 57.0879 59.2324 56.3652 60.5605 55.8574C61.9082 55.3301 63.3047 55.0664 64.75 55.0664C66.2148 55.0664 67.6406 55.3398 69.0273 55.8867C70.4336 56.4336 71.6641 57.3809 72.7188 58.7285C73.207 58.0645 73.7637 57.498 74.3887 57.0293C75.0137 56.5605 75.668 56.1797 76.3516 55.8867C77.0547 55.5938 77.7773 55.3887 78.5195 55.2715C79.2617 55.1348 79.9941 55.0664 80.7168 55.0664C82.377 55.0664 83.9297 55.3789 85.375 56.0039C86.8398 56.6289 88.1094 57.4883 89.1836 58.582C90.2773 59.6562 91.1367 60.9258 91.7617 62.3906C92.3867 63.8555 92.6992 65.418 92.6992 67.0781V87Z" fill="#478D81"/>
</svg>
